<svg width="223" height="76" viewBox="0 0 223 76" fill="none" xmlns="http://www.w3.org/2000/svg">
<path d="M129.768 60.8H131.832L129.592 72H127.528L129.768 60.8ZM121.736 72H119.656L121.896 60.8H123.976L121.736 72ZM128.648 67.2H122.552L122.888 65.424H129.016L128.648 67.2ZM136.705 72.112C135.852 72.112 135.11 71.9573 134.481 71.648C133.852 71.328 133.361 70.8907 133.009 70.336C132.668 69.7707 132.497 69.1093 132.497 68.352C132.497 67.3813 132.71 66.5227 133.137 65.776C133.564 65.0293 134.145 64.4427 134.881 64.016C135.628 63.5787 136.476 63.36 137.425 63.36C138.225 63.36 138.918 63.5093 139.505 63.808C140.092 64.1067 140.545 64.5387 140.865 65.104C141.196 65.6587 141.361 66.3253 141.361 67.104C141.361 67.3067 141.35 67.5147 141.329 67.728C141.308 67.9413 141.276 68.1387 141.233 68.32H133.985L134.209 66.992H140.289L139.473 67.44C139.558 66.896 139.521 66.4427 139.361 66.08C139.201 65.7173 138.945 65.44 138.593 65.248C138.241 65.056 137.82 64.96 137.329 64.96C136.742 64.96 136.23 65.0987 135.793 65.376C135.366 65.6427 135.036 66.0267 134.801 66.528C134.566 67.0187 134.449 67.5947 134.449 68.256C134.449 68.9493 134.646 69.4827 135.041 69.856C135.446 70.2293 136.07 70.416 136.913 70.416C137.393 70.416 137.852 70.3413 138.289 70.192C138.726 70.032 139.089 69.8133 139.377 69.536L140.209 70.928C139.761 71.3227 139.228 71.6213 138.609 71.824C138.001 72.016 137.366 72.112 136.705 72.112ZM154.579 63.36C155.326 63.36 155.95 63.5093 156.451 63.808C156.953 64.1067 157.305 64.5493 157.507 65.136C157.71 65.712 157.726 66.4213 157.555 67.264L156.611 72H154.611L155.555 67.312C155.694 66.608 155.635 66.064 155.379 65.68C155.123 65.296 154.659 65.104 153.987 65.104C153.294 65.104 152.723 65.3067 152.275 65.712C151.838 66.1067 151.534 66.72 151.363 67.552L150.467 72H148.467L149.411 67.312C149.55 66.608 149.491 66.064 149.235 65.68C148.979 65.296 148.515 65.104 147.843 65.104C147.15 65.104 146.579 65.3067 146.131 65.712C145.694 66.1067 145.39 66.7253 145.219 67.568L144.323 72H142.323L144.019 63.456H145.923L145.459 65.808L145.123 65.12C145.518 64.512 146.009 64.0693 146.595 63.792C147.193 63.504 147.843 63.36 148.547 63.36C149.102 63.36 149.593 63.456 150.019 63.648C150.446 63.8293 150.787 64.112 151.043 64.496C151.31 64.8693 151.465 65.3333 151.507 65.888L150.547 65.68C150.985 64.912 151.545 64.336 152.227 63.952C152.921 63.5573 153.705 63.36 154.579 63.36ZM163.407 72.112C162.575 72.112 161.844 71.9573 161.215 71.648C160.596 71.328 160.116 70.8907 159.775 70.336C159.433 69.7707 159.263 69.1093 159.263 68.352C159.263 67.392 159.481 66.5387 159.919 65.792C160.356 65.0347 160.953 64.4427 161.711 64.016C162.479 63.5787 163.353 63.36 164.335 63.36C165.177 63.36 165.908 63.5147 166.527 63.824C167.156 64.1227 167.641 64.5547 167.983 65.12C168.324 65.6747 168.495 66.336 168.495 67.104C168.495 68.0533 168.276 68.9067 167.839 69.664C167.401 70.4213 166.799 71.0187 166.031 71.456C165.273 71.8933 164.399 72.112 163.407 72.112ZM163.535 70.4C164.111 70.4 164.617 70.2667 165.055 70C165.492 69.7227 165.839 69.344 166.095 68.864C166.351 68.384 166.479 67.8293 166.479 67.2C166.479 66.5387 166.281 66.016 165.887 65.632C165.492 65.248 164.937 65.056 164.223 65.056C163.657 65.056 163.151 65.1947 162.703 65.472C162.265 65.7387 161.919 66.112 161.663 66.592C161.407 67.072 161.279 67.6267 161.279 68.256C161.279 68.928 161.476 69.456 161.871 69.84C162.265 70.2133 162.82 70.4 163.535 70.4ZM173.767 72.112C172.925 72.112 172.183 71.9573 171.543 71.648C170.914 71.328 170.429 70.8907 170.087 70.336C169.746 69.7707 169.575 69.1093 169.575 68.352C169.575 67.392 169.794 66.5387 170.231 65.792C170.669 65.0347 171.271 64.4427 172.039 64.016C172.807 63.5787 173.693 63.36 174.695 63.36C175.559 63.36 176.301 63.5307 176.919 63.872C177.549 64.2027 178.034 64.6987 178.375 65.36L176.663 66.24C176.471 65.8347 176.194 65.536 175.831 65.344C175.479 65.152 175.047 65.056 174.535 65.056C173.981 65.056 173.479 65.1947 173.031 65.472C172.583 65.7387 172.231 66.112 171.975 66.592C171.719 67.072 171.591 67.6267 171.591 68.256C171.591 68.9173 171.789 69.44 172.183 69.824C172.578 70.208 173.138 70.4 173.863 70.4C174.333 70.4 174.77 70.304 175.175 70.112C175.581 69.92 175.922 69.6213 176.199 69.216L177.671 70.208C177.277 70.8053 176.733 71.2747 176.039 71.616C175.346 71.9467 174.589 72.112 173.767 72.112ZM182.955 72.112C182.102 72.112 181.36 71.9573 180.731 71.648C180.102 71.328 179.611 70.8907 179.259 70.336C178.918 69.7707 178.747 69.1093 178.747 68.352C178.747 67.3813 178.96 66.5227 179.387 65.776C179.814 65.0293 180.395 64.4427 181.131 64.016C181.878 63.5787 182.726 63.36 183.675 63.36C184.475 63.36 185.168 63.5093 185.755 63.808C186.342 64.1067 186.795 64.5387 187.115 65.104C187.446 65.6587 187.611 66.3253 187.611 67.104C187.611 67.3067 187.6 67.5147 187.579 67.728C187.558 67.9413 187.526 68.1387 187.483 68.32H180.235L180.459 66.992H186.539L185.723 67.44C185.808 66.896 185.771 66.4427 185.611 66.08C185.451 65.7173 185.195 65.44 184.843 65.248C184.491 65.056 184.07 64.96 183.579 64.96C182.992 64.96 182.48 65.0987 182.043 65.376C181.616 65.6427 181.286 66.0267 181.051 66.528C180.816 67.0187 180.699 67.5947 180.699 68.256C180.699 68.9493 180.896 69.4827 181.291 69.856C181.696 70.2293 182.32 70.416 183.163 70.416C183.643 70.416 184.102 70.3413 184.539 70.192C184.976 70.032 185.339 69.8133 185.627 69.536L186.459 70.928C186.011 71.3227 185.478 71.6213 184.859 71.824C184.251 72.016 183.616 72.112 182.955 72.112ZM194.925 63.36C195.661 63.36 196.285 63.5093 196.797 63.808C197.309 64.1067 197.667 64.5493 197.869 65.136C198.083 65.712 198.104 66.4213 197.933 67.264L196.989 72H194.989L195.917 67.312C196.056 66.6187 195.992 66.08 195.725 65.696C195.459 65.3013 194.973 65.104 194.269 65.104C193.533 65.104 192.925 65.3067 192.445 65.712C191.965 66.1173 191.64 66.736 191.469 67.568L190.573 72H188.573L190.269 63.456H192.173L191.693 65.888L191.373 65.12C191.779 64.512 192.285 64.0693 192.893 63.792C193.512 63.504 194.189 63.36 194.925 63.36ZM202.727 72.112C202.172 72.112 201.692 71.9947 201.287 71.76C200.892 71.5147 200.604 71.1733 200.423 70.736C200.252 70.288 200.225 69.76 200.343 69.152L201.863 61.568H203.863L202.343 69.136C202.279 69.5307 202.321 69.8507 202.471 70.096C202.62 70.3413 202.903 70.464 203.319 70.464C203.511 70.464 203.703 70.4373 203.895 70.384C204.097 70.32 204.279 70.2347 204.439 70.128L204.791 71.6C204.492 71.792 204.161 71.9253 203.799 72C203.436 72.0747 203.079 72.112 202.727 72.112ZM199.767 65.12L200.087 63.52H205.767L205.447 65.12H199.767ZM206.308 72L208.004 63.456H209.908L209.428 65.888L209.252 65.184C209.646 64.4907 210.148 64.016 210.756 63.76C211.364 63.4933 212.105 63.36 212.98 63.36L212.612 65.264C212.526 65.2427 212.446 65.232 212.372 65.232C212.297 65.2213 212.212 65.216 212.116 65.216C211.337 65.216 210.692 65.424 210.18 65.84C209.668 66.2453 209.326 66.896 209.156 67.792L208.308 72H206.308ZM217.094 72.112C216.262 72.112 215.532 71.9573 214.902 71.648C214.284 71.328 213.804 70.8907 213.462 70.336C213.121 69.7707 212.95 69.1093 212.95 68.352C212.95 67.392 213.169 66.5387 213.606 65.792C214.044 65.0347 214.641 64.4427 215.398 64.016C216.166 63.5787 217.041 63.36 218.022 63.36C218.865 63.36 219.596 63.5147 220.214 63.824C220.844 64.1227 221.329 64.5547 221.67 65.12C222.012 65.6747 222.182 66.336 222.182 67.104C222.182 68.0533 221.964 68.9067 221.526 69.664C221.089 70.4213 220.486 71.0187 219.718 71.456C218.961 71.8933 218.086 72.112 217.094 72.112ZM217.222 70.4C217.798 70.4 218.305 70.2667 218.742 70C219.18 69.7227 219.526 69.344 219.782 68.864C220.038 68.384 220.166 67.8293 220.166 67.2C220.166 66.5387 219.969 66.016 219.574 65.632C219.18 65.248 218.625 65.056 217.91 65.056C217.345 65.056 216.838 65.1947 216.39 65.472C215.953 65.7387 215.606 66.112 215.35 66.592C215.094 67.072 214.966 67.6267 214.966 68.256C214.966 68.928 215.164 69.456 215.558 69.84C215.953 70.2133 216.508 70.4 217.222 70.4Z" fill="#E31515"/>
<path d="M10.016 44.384C8.224 44.384 6.50667 44.1493 4.864 43.68C3.22133 43.1893 1.89867 42.56 0.896 41.792L2.656 37.888C3.616 38.5707 4.74667 39.136 6.048 39.584C7.37067 40.0107 8.704 40.224 10.048 40.224C11.072 40.224 11.8933 40.128 12.512 39.936C13.152 39.7227 13.6213 39.4347 13.92 39.072C14.2187 38.7093 14.368 38.2933 14.368 37.824C14.368 37.2267 14.1333 36.7573 13.664 36.416C13.1947 36.0533 12.576 35.7653 11.808 35.552C11.04 35.3173 10.1867 35.104 9.248 34.912C8.33067 34.6987 7.40267 34.4427 6.464 34.144C5.54667 33.8453 4.704 33.4613 3.936 32.992C3.168 32.5227 2.53867 31.904 2.048 31.136C1.57867 30.368 1.344 29.3867 1.344 28.192C1.344 26.912 1.68533 25.7493 2.368 24.704C3.072 23.6373 4.11733 22.7947 5.504 22.176C6.912 21.536 8.672 21.216 10.784 21.216C12.192 21.216 13.5787 21.3867 14.944 21.728C16.3093 22.048 17.5147 22.5387 18.56 23.2L16.96 27.136C15.9147 26.5387 14.8693 26.1013 13.824 25.824C12.7787 25.5253 11.7547 25.376 10.752 25.376C9.74933 25.376 8.928 25.4933 8.288 25.728C7.648 25.9627 7.18933 26.272 6.912 26.656C6.63467 27.0187 6.496 27.4453 6.496 27.936C6.496 28.512 6.73067 28.9813 7.2 29.344C7.66933 29.6853 8.288 29.9627 9.056 30.176C9.824 30.3893 10.6667 30.6027 11.584 30.816C12.5227 31.0293 13.4507 31.2747 14.368 31.552C15.3067 31.8293 16.16 32.2027 16.928 32.672C17.696 33.1413 18.3147 33.76 18.784 34.528C19.2747 35.296 19.52 36.2667 19.52 37.44C19.52 38.6987 19.168 39.8507 18.464 40.896C17.76 41.9413 16.704 42.784 15.296 43.424C13.9093 44.064 12.1493 44.384 10.016 44.384ZM33.2703 44V40.64L32.9503 39.904V33.888C32.9503 32.8213 32.6196 31.9893 31.9583 31.392C31.3183 30.7947 30.3263 30.496 28.9823 30.496C28.0649 30.496 27.1583 30.6453 26.2623 30.944C25.3876 31.2213 24.6409 31.6053 24.0223 32.096L22.2303 28.608C23.1689 27.9467 24.2996 27.4347 25.6223 27.072C26.9449 26.7093 28.2889 26.528 29.6543 26.528C32.2783 26.528 34.3156 27.1467 35.7663 28.384C37.2169 29.6213 37.9423 31.552 37.9423 34.176V44H33.2703ZM28.0223 44.256C26.6783 44.256 25.5263 44.032 24.5663 43.584C23.6063 43.1147 22.8703 42.4853 22.3583 41.696C21.8463 40.9067 21.5903 40.0213 21.5903 39.04C21.5903 38.016 21.8356 37.12 22.3263 36.352C22.8383 35.584 23.6383 34.9867 24.7263 34.56C25.8143 34.112 27.2329 33.888 28.9823 33.888H33.5583V36.8H29.5263C28.3529 36.8 27.5423 36.992 27.0943 37.376C26.6676 37.76 26.4543 38.24 26.4543 38.816C26.4543 39.456 26.6996 39.968 27.1903 40.352C27.7023 40.7147 28.3956 40.896 29.2703 40.896C30.1023 40.896 30.8489 40.704 31.5103 40.32C32.1716 39.9147 32.6516 39.328 32.9503 38.56L33.7183 40.864C33.3556 41.9733 32.6943 42.816 31.7343 43.392C30.7743 43.968 29.5369 44.256 28.0223 44.256ZM52.9243 26.528C54.2896 26.528 55.5056 26.8053 56.5723 27.36C57.6603 27.8933 58.5136 28.7253 59.1323 29.856C59.7509 30.9653 60.0603 32.3947 60.0603 34.144V44H55.0683V34.912C55.0683 33.5253 54.7589 32.5013 54.1403 31.84C53.5429 31.1787 52.6896 30.848 51.5803 30.848C50.7909 30.848 50.0763 31.0187 49.4363 31.36C48.8176 31.68 48.3269 32.1813 47.9643 32.864C47.6229 33.5467 47.4523 34.4213 47.4523 35.488V44H42.4603V26.784H47.2283V31.552L46.3323 30.112C46.9509 28.96 47.8363 28.0747 48.9883 27.456C50.1403 26.8373 51.4523 26.528 52.9243 26.528ZM72.8063 50.464C71.1849 50.464 69.6169 50.2613 68.1023 49.856C66.6089 49.472 65.3609 48.8853 64.3583 48.096L66.3423 44.512C67.0676 45.1093 67.9849 45.5787 69.0943 45.92C70.2249 46.2827 71.3343 46.464 72.4223 46.464C74.1929 46.464 75.4729 46.0693 76.2623 45.28C77.0729 44.4907 77.4783 43.3173 77.4783 41.76V39.168L77.7983 34.848L77.7343 30.496V26.784H82.4703V41.12C82.4703 44.32 81.6383 46.6773 79.9743 48.192C78.3103 49.7067 75.9209 50.464 72.8063 50.464ZM72.0383 43.168C70.4383 43.168 68.9876 42.8267 67.6863 42.144C66.4063 41.44 65.3716 40.4693 64.5823 39.232C63.8143 37.9733 63.4303 36.512 63.4303 34.848C63.4303 33.1627 63.8143 31.7013 64.5823 30.464C65.3716 29.2053 66.4063 28.2347 67.6863 27.552C68.9876 26.8693 70.4383 26.528 72.0383 26.528C73.4889 26.528 74.7689 26.8267 75.8783 27.424C76.9876 28 77.8516 28.9067 78.4703 30.144C79.0889 31.36 79.3983 32.928 79.3983 34.848C79.3983 36.7467 79.0889 38.3147 78.4703 39.552C77.8516 40.768 76.9876 41.6747 75.8783 42.272C74.7689 42.8693 73.4889 43.168 72.0383 43.168ZM73.0303 39.072C73.9049 39.072 74.6836 38.9013 75.3663 38.56C76.0489 38.1973 76.5823 37.696 76.9663 37.056C77.3503 36.416 77.5423 35.68 77.5423 34.848C77.5423 33.9947 77.3503 33.2587 76.9663 32.64C76.5823 32 76.0489 31.5093 75.3663 31.168C74.6836 30.8053 73.9049 30.624 73.0303 30.624C72.1556 30.624 71.3769 30.8053 70.6943 31.168C70.0116 31.5093 69.4676 32 69.0623 32.64C68.6783 33.2587 68.4863 33.9947 68.4863 34.848C68.4863 35.68 68.6783 36.416 69.0623 37.056C69.4676 37.696 70.0116 38.1973 70.6943 38.56C71.3769 38.9013 72.1556 39.072 73.0303 39.072ZM94.3805 44.256C92.9512 44.256 91.6712 43.9787 90.5405 43.424C89.4312 42.8693 88.5672 42.0267 87.9485 40.896C87.3298 39.744 87.0205 38.2827 87.0205 36.512V26.784H92.0125V35.776C92.0125 37.2053 92.3112 38.2613 92.9085 38.944C93.5272 39.6053 94.3912 39.936 95.5005 39.936C96.2685 39.936 96.9512 39.776 97.5485 39.456C98.1458 39.1147 98.6152 38.6027 98.9565 37.92C99.2978 37.216 99.4685 36.3413 99.4685 35.296V26.784H104.461V44H99.7245V39.264L100.589 40.64C100.013 41.8347 99.1592 42.7413 98.0285 43.36C96.9192 43.9573 95.7032 44.256 94.3805 44.256ZM117.629 44.256C115.667 44.256 113.939 43.872 112.445 43.104C110.973 42.336 109.832 41.2907 109.021 39.968C108.211 38.624 107.805 37.0987 107.805 35.392C107.805 33.664 108.2 32.1387 108.989 30.816C109.8 29.472 110.899 28.4267 112.285 27.68C113.672 26.912 115.24 26.528 116.989 26.528C118.675 26.528 120.189 26.8907 121.533 27.616C122.899 28.32 123.976 29.344 124.765 30.688C125.555 32.0107 125.949 33.6 125.949 35.456C125.949 35.648 125.939 35.872 125.917 36.128C125.896 36.3627 125.875 36.5867 125.853 36.8H111.869V33.888H123.229L121.309 34.752C121.309 33.856 121.128 33.0773 120.765 32.416C120.403 31.7547 119.901 31.2427 119.261 30.88C118.621 30.496 117.875 30.304 117.021 30.304C116.168 30.304 115.411 30.496 114.749 30.88C114.109 31.2427 113.608 31.7653 113.245 32.448C112.883 33.1093 112.701 33.8987 112.701 34.816V35.584C112.701 36.5227 112.904 37.3547 113.309 38.08C113.736 38.784 114.323 39.328 115.069 39.712C115.837 40.0747 116.733 40.256 117.757 40.256C118.675 40.256 119.475 40.1173 120.157 39.84C120.861 39.5627 121.501 39.1467 122.077 38.592L124.733 41.472C123.944 42.368 122.952 43.0613 121.757 43.552C120.563 44.0213 119.187 44.256 117.629 44.256Z" fill="#E31515"/>
<ellipse cx="161.5" cy="35.5" rx="18.5" ry="16.5" fill="#E31515"/>
<path d="M161.5 0L177.521 27.5941H145.479L161.5 0Z" fill="#E31515"/>
<path d="M159.52 43.7228V28.9388H163.648V43.7228H159.52ZM153.984 38.2828V34.3788H169.216V38.2828H153.984Z" fill="#FFF4F4"/>
</svg>
